STARTFONT 2.1
COMMENT This font image translated from Metafont
COMMENT Input file was ``bnr10''
COMMENT DPI was ``250'', usermag ``1000'', blackness ``3''
COMMENT shrink was 1
FONT -*-bengali-medium-r-*-*-*-250-*-*-*-*-*-fontspecific
SIZE 10 250 250
FONTBOUNDINGBOX 63 44 -20 -10
STARTPROPERTIES 4
FONT_ASCENT 34
FONT_DESCENT 4
COPYRIGHT "GNU General Public License"
_XMBDFED_INFO "Edited with xmbdfed 4.5."
ENDPROPERTIES
CHARS 249
STARTCHAR C001
ENCODING 1
SWIDTH 489 0
DWIDTH 17 0
BBX 21 33 -3 -2
BITMAP
800000
800000
400000
3FF800
000700
000080
000040
000040
000020
1FFFF8
008000
004000
007E00
01FF00
03E180
03E080
03C0C0
0000C0
0001C0
000180
000380
040700
07FE00
03F800
00C000
002000
001800
000400
000200
000100
0000C0
000020
000010
ENDCHAR
STARTCHAR C002
ENCODING 2
SWIDTH 604 0
DWIDTH 21 0
BBX 23 32 -1 -1
BITMAP
800000
800000
400000
3FFC00
0003C0
000020
000010
000010
000010
7FFFFE
180000
040000
040000
0FC000
1FE010
1E3038
0C10F0
0019F0
001FF0
001E60
003C60
007060
00E060
03C060
1F0060
1E0060
000060
000060
000060
000060
000020
000030
ENDCHAR
STARTCHAR C003
ENCODING 3
SWIDTH 604 0
DWIDTH 21 0
BBX 25 30 -3 1
BITMAP
80000000
80000000
60000000
1FFF8000
00007000
00000800
00000400
00000400
00000200
1FFFFF80
00040000
00040000
04040000
04040000
04040000
04040800
04041800
04043C00
0604F400
0207C600
02070200
03000200
01000200
01800200
00800600
00C00400
00600C00
00383800
001FF000
0007C000
ENDCHAR
STARTCHAR C004
ENCODING 4
SWIDTH 633 0
DWIDTH 22 0
BBX 24 30 -1 1
BITMAP
800000
800000
400000
3FFC00
0003C0
000030
000008
000008
000004
7FFFFF
000400
000400
220400
220400
320400
120400
120418
120438
1204EC
1907C4
090704
090004
0D0004
068004
02800C
034008
01E018
00F870
007FE0
001F80
ENDCHAR
STARTCHAR C005
ENCODING 5
SWIDTH 720 0
DWIDTH 25 0
BBX 20 23 2 -1
BITMAP
604410
F0F410
F1BC10
E30C10
7E3C10
3CF410
03C410
070410
0C0410
180410
300410
780410
1C0410
070610
038790
00C4D0
006470
003430
001C10
001C10
000C00
000C00
000400
ENDCHAR
STARTCHAR C006
ENCODING 6
SWIDTH 633 0
DWIDTH 22 0
BBX 18 23 2 -1
BITMAP
000F00
003F80
007080
00E0C0
01C0C0
0180C0
0380C0
43E0C0
43F0C0
C3F0C0
81F0C0
80E0C0
8000C0
8000C0
C000C0
6000C0
3FF8C0
1FFEC0
0007C0
0001C0
0000C0
0000C0
000040
ENDCHAR
STARTCHAR C007
ENCODING 7
SWIDTH 748 0
DWIDTH 26 0
BBX 23 33 2 -1
BITMAP
008000
010000
010000
010000
018000
00E000
007E00
001FE0
0001F8
00001C
000F06
003F82
007082
00E0C2
01C0C2
0180C2
0380C4
43E0DC
43F0F8
C3F0E0
81F0C0
80E0C0
8000C0
8000C0
C000C0
6000C0
3FF8C0
1FFEC0
0007C0
0001C0
0000C0
0000C0
000040
ENDCHAR
STARTCHAR C008
ENCODING 8
SWIDTH 576 0
DWIDTH 20 0
BBX 17 21 1 1
BITMAP
007E00
01FF00
038180
860080
460080
4F0080
4F0180
461F00
403E00
403E00
403E00
201F00
200180
200080
100080
100080
080080
0C0180
070700
03FE00
00F800
ENDCHAR
STARTCHAR C014
ENCODING 14
SWIDTH 288 0
DWIDTH 10 0
BBX 11 22 0 0
BITMAP
FFE0
0300
0600
0600
0600
0C00
0C00
0C00
0C00
0C00
0600
0600
0600
0600
0600
0600
0600
0600
0C00
0C00
1800
7000
ENDCHAR
STARTCHAR C015
ENCODING 15
SWIDTH 0 0
DWIDTH 0 0
BBX 17 7 -20 -3
BITMAP
800080
800080
800080
C00080
7FFE80
3FFF80
000180
ENDCHAR
STARTCHAR C016
ENCODING 16
SWIDTH 604 0
DWIDTH 21 0
BBX 22 24 0 -2
BITMAP
FFFFFC
0180C0
01C0C0
01C060
036060
036060
033060
6618C0
3C1F80
00FF80
01F0C0
01F040
01E060
000060
0000E0
0101C0
01FF80
00FE00
001000
000C00
000300
000080
000060
000010
ENDCHAR
STARTCHAR C017
ENCODING 17
SWIDTH 633 0
DWIDTH 22 0
BBX 23 23 0 -1
BITMAP
FFFFFE
00E030
00E030
00E018
01B018
01B018
019818
630C30
1E03E0
000020
000020
000020
000020
01F820
07FE20
0F8720
0F81A0
0F80E0
070060
000060
000020
000020
000020
ENDCHAR
STARTCHAR C018
ENCODING 18
SWIDTH 1152 0
DWIDTH 40 0
BBX 41 23 0 0
BITMAP
000000000800
FFFF80FC0F80
00C0C3830800
01C066008800
01E06C00C800
01E07F01E800
01B060879800
2318604E0800
1E07C05C0800
000000780800
000000F00800
000001C00800
000001800800
000000000800
000000000800
000000000800
000000000800
000000000800
000000000800
000000000800
000000000800
000000000800
000000000800
ENDCHAR
STARTCHAR C019
ENCODING 19
SWIDTH 1152 0
DWIDTH 40 0
BBX 41 23 0 0
BITMAP
000000000800
FFFF80FC0F80
00C0C3830800
01C066008800
01E06C00C800
01E07F01E800
01B060879800
2318604E0800
1E07C05C0800
000000780800
000000F00800
000001C00800
000001800800
000000F80800
000001FCE800
00000107F800
000002031800
000002C10800
000003E00800
000003E00800
000001C00800
000000000800
000000000800
ENDCHAR
STARTCHAR C020
ENCODING 20
SWIDTH 1008 0
DWIDTH 35 0
BBX 36 23 0 -1
BITMAP
FFFFFFFFF0
00C1800000
00C0C00000
01E0600000
01E0601C00
01E0601F00
01B0601380
3318F010C0
1E07981040
00000C1040
00001C1040
00003813C0
0000701780
0000E01780
0000E01300
0000F81000
00001E1000
0000071000
0000019000
000000D000
0000007000
0000003000
0000001000
ENDCHAR
STARTCHAR C021
ENCODING 21
SWIDTH 633 0
DWIDTH 22 0
BBX 23 23 0 -1
BITMAP
FFFFFE
00E030
00E030
00E018
01B018
01B018
019818
630C30
1E03E0
000020
0001E0
000FE0
003E20
007020
01C020
01F020
003C20
000F20
0003A0
0000E0
000060
000030
000020
ENDCHAR
STARTCHAR C022
ENCODING 22
SWIDTH 777 0
DWIDTH 27 0
BBX 28 23 0 -1
BITMAP
FFFFFFF0
00E03100
00E03100
00E01900
01B01900
01B01900
01981900
630C3100
1E03E100
00002100
00002100
00002100
00002100
0001E100
0003F900
0003FD00
0003E700
0001C300
00000300
00000100
00000100
00000100
00000100
ENDCHAR
STARTCHAR C023
ENCODING 23
SWIDTH 633 0
DWIDTH 22 0
BBX 23 22 0 0
BITMAP
FFFFFE
00E030
00E030
00E018
01B018
01B018
019818
630C30
1E03E0
000020
000020
000020
03E020
07F3A0
041FE0
080C60
0B0420
0F8020
0F8020
070020
000020
000020
ENDCHAR
STARTCHAR C024
ENCODING 24
SWIDTH 489 0
DWIDTH 17 0
BBX 18 25 0 -3
BITMAP
FFFFC0
040000
03E000
0FF000
1F1800
1F0800
1E0C00
000C00
000C00
101C00
183800
0FF000
07C000
00C000
002000
001800
07CC00
1FFA00
383900
3C0800
3C0800
1C0800
000800
000800
000800
ENDCHAR
STARTCHAR C025
ENCODING 25
SWIDTH 748 0
DWIDTH 26 0
BBX 27 22 0 0
BITMAP
FFFFFFE0
00010000
00010000
00010000
000F0000
00391E00
00613F00
01813F00
03011D00
0C010100
18010300
1801C600
0E017C00
03810000
00E10000
00310000
00190000
000D0000
01C70000
01C30000
01C30000
00010000
ENDCHAR
STARTCHAR C026
ENCODING 26
SWIDTH 691 0
DWIDTH 24 0
BBX 25 22 0 0
BITMAP
FFFFFF80
00010000
00010000
00010000
000F0000
00390000
00617800
0181DC00
03010C00
0C010C00
18010C00
18010C00
0E010C00
03810C00
00E10C00
00310C00
00190C00
000D0C00
01C70C00
01C30C00
01C30C00
00010000
ENDCHAR
STARTCHAR C027
ENCODING 27
SWIDTH 547 0
DWIDTH 19 0
BBX 20 24 0 -2
BITMAP
FFFFF0
000000
000000
078600
1FCE00
387D00
3C3980
3E3980
3E1180
1C0180
000380
000300
000700
301E00
1FF800
0FE000
010000
00C000
003000
000C00
000200
000100
0000C0
000020
ENDCHAR
STARTCHAR C028
ENCODING 28
SWIDTH 662 0
DWIDTH 23 0
BBX 24 24 0 -2
BITMAP
FFFFFF
060000
020000
01F800
07FC00
0F0600
0F02F0
0E03B8
000318
000318
000718
000618
200E18
383C18
1FF818
07C018
018018
004018
003018
000818
000418
000218
000180
000040
ENDCHAR
STARTCHAR C029
ENCODING 29
SWIDTH 691 0
DWIDTH 24 0
BBX 20 21 2 1
BITMAP
01E100
07F980
0E1D80
9F0580
9F8340
908240
808040
808040
418340
4107C0
4307C0
0207E0
200320
200010
100010
180010
0C0010
070030
03C0E0
00FFC0
003F00
ENDCHAR
STARTCHAR C030
ENCODING 30
SWIDTH 720 0
DWIDTH 25 0
BBX 20 21 2 1
BITMAP
F07880
FCFC80
0F87C0
87C340
8FE120
9FF120
9FF020
9FF020
5CF3A0
4007E0
4007C0
0007E0
2003A0
200010
100010
180010
0C0010
070030
03C0E0
00FFC0
003F00
ENDCHAR
STARTCHAR C031
ENCODING 31
SWIDTH 633 0
DWIDTH 22 0
BBX 23 22 0 0
BITMAP
FFFFFE
040000
020000
03E000
0FF000
1F1BE0
1F0E30
1E0C70
000CF0
000CF0
001CF0
103860
1FF000
0FC000
020000
018000
004000
002000
001000
000800
000400
000200
ENDCHAR
STARTCHAR C032
ENCODING 32
SWIDTH 403 0
DWIDTH 14 0
BBX 0 0 0 0
BITMAP
ENDCHAR
STARTCHAR C033
ENCODING 33
SWIDTH 604 0
DWIDTH 21 0
BBX 4 28 14 -4
BITMAP
E0
E0
E0
E0
E0
E0
E0
E0
E0
E0
E0
E0
E0
E0
E0
E0
E0
E0
E0
40
00
00
00
00
60
F0
F0
60
ENDCHAR
STARTCHAR C034
ENCODING 34
SWIDTH 460 0
DWIDTH 16 0
BBX 12 13 2 16
BITMAP
71E0
FBF0
FFF0
FFF0
7DF0
0C30
0C30
1860
1860
30C0
60C0
6180
4100
ENDCHAR
STARTCHAR C035
ENCODING 35
SWIDTH 547 0
DWIDTH 19 0
BBX 15 28 2 -6
BITMAP
0108
0318
0318
0318
0318
0330
0630
0630
0630
0630
FFFE
FFFE
0C60
0C60
0C60
FFFE
FFFE
18C0
18C0
18C0
18C0
1980
1980
3180
3180
3180
3180
0100
ENDCHAR
STARTCHAR C036
ENCODING 36
SWIDTH 633 0
DWIDTH 22 0
BBX 18 32 2 -3
BITMAP
002000
006000
006000
006000
00C000
00C000
00C000
00C000
018000
018000
018000
030000
030000
030000
060000
060000
063FC0
0C3FC0
0C0000
0C0000
0C0000
180000
180000
180000
300000
300000
300000
600000
600000
600000
C00000
C00000
ENDCHAR
STARTCHAR C037
ENCODING 37
SWIDTH 691 0
DWIDTH 24 0
BBX 20 32 2 -3
BITMAP
180020
240060
4301C0
42FEC0
810180
810180
810300
810300
810600
810600
810C00
421800
421800
243000
183000
006000
006000
00C180
00C240
018420
018420
030810
030810
060810
060810
0C0810
0C0810
180810
300420
300420
600240
600180
ENDCHAR
STARTCHAR C038
ENCODING 38
SWIDTH 489 0
DWIDTH 17 0
BBX 16 26 2 -3
BITMAP
0F00
7F8F
F888
F8C8
F0C8
00C8
01C8
C388
7F08
3C08
0408
0208
0188
0048
0028
0078
01F8
0788
0E08
1C08
1F08
03C8
00E8
0038
0018
0018
ENDCHAR
STARTCHAR C039
ENCODING 39
SWIDTH 288 0
DWIDTH 10 0
BBX 6 13 2 16
BITMAP
78
FC
FC
FC
7C
0C
0C
0C
18
18
30
30
60
ENDCHAR
STARTCHAR C040
ENCODING 40
SWIDTH 288 0
DWIDTH 10 0
BBX 7 35 2 -7
BITMAP
02
06
04
0C
18
18
38
30
30
70
70
70
60
E0
E0
E0
E0
E0
E0
E0
E0
E0
E0
60
70
70
30
30
38
18
18
0C
0C
06
02
ENDCHAR
STARTCHAR C041
ENCODING 41
SWIDTH 288 0
DWIDTH 10 0
BBX 7 35 1 -7
BITMAP
80
C0
40
60
30
30
38
18
18
1C
1C
1C
0C
0E
0E
0E
0E
0E
0E
0E
0E
0E
0E
0C
1C
1C
18
18
38
30
30
60
60
C0
80
ENDCHAR
STARTCHAR C042
ENCODING 42
SWIDTH 489 0
DWIDTH 17 0
BBX 13 18 2 11
BITMAP
0100
0300
0300
0300
C318
6330
3BE0
1FC0
0700
0700
1FC0
3BE0
6330
C318
0300
0300
0300
0100
ENDCHAR
STARTCHAR C043
ENCODING 43
SWIDTH 691 0
DWIDTH 24 0
BBX 21 23 2 -1
BITMAP
002000
006000
006000
006000
006000
006000
006000
006000
006000
006000
FFFFF8
FFFFF8
006000
006000
006000
006000
006000
006000
006000
006000
006000
006000
002000
ENDCHAR
STARTCHAR C044
ENCODING 44
SWIDTH 345 0
DWIDTH 12 0
BBX 6 13 4 -8
BITMAP
78
FC
FC
FC
7C
0C
0C
18
18
30
30
60
20
ENDCHAR
STARTCHAR C045
ENCODING 45
SWIDTH 345 0
DWIDTH 12 0
BBX 10 3 1 8
BITMAP
FFC0
FFC0
FFC0
ENDCHAR
STARTCHAR C046
ENCODING 46
SWIDTH 489 0
DWIDTH 17 0
BBX 1 22 13 0
BITMAP
80
80
80
80
80
80
80
80
80
80
80
80
80
80
80
80
80
80
80
80
80
80
ENDCHAR
STARTCHAR C047
ENCODING 47
SWIDTH 288 0
DWIDTH 10 0
BBX 10 27 0 -5
BITMAP
0080
00C0
0180
0180
0180
0300
0300
0300
0300
0600
0600
0600
0C00
0C00
0C00
0C00
1800
1800
1800
3000
3000
3000
6000
6000
6000
6000
C000
ENDCHAR
STARTCHAR C048
ENCODING 48
SWIDTH 547 0
DWIDTH 19 0
BBX 15 16 2 3
BITMAP
07C0
1FF0
3838
600C
4004
C002
8002
8002
8002
8002
8006
4004
600C
3838
1FF0
07C0
ENDCHAR
STARTCHAR C049
ENCODING 49
SWIDTH 547 0
DWIDTH 19 0
BBX 13 21 3 1
BITMAP
4000
C000
8000
8000
C000
6000
3800
1E00
0700
01C0
00E0
0030
0010
0008
0008
0008
0788
0FD8
1FF0
1FE0
0F80
ENDCHAR
STARTCHAR C050
ENCODING 50
SWIDTH 547 0
DWIDTH 19 0
BBX 15 23 2 -1
BITMAP
2000
6000
6000
3000
0E00
0380
00F0
0018
000C
000C
000C
8018
6070
7FC0
3C00
0E00
0300
01C0
0060
0030
0008
0004
0002
ENDCHAR
STARTCHAR C051
ENCODING 51
SWIDTH 547 0
DWIDTH 19 0
BBX 16 16 1 2
BITMAP
8000
C000
40F8
41FC
41F6
41F2
60E3
2001
2001
3001
1001
1803
0C02
0706
03FC
00F8
ENDCHAR
STARTCHAR C052
ENCODING 52
SWIDTH 547 0
DWIDTH 19 0
BBX 15 23 2 -1
BITMAP
07E0
1FF8
307C
401E
400E
C006
C006
E004
F004
7C18
3FF0
0FE0
1FF8
307C
401E
400E
C006
C006
E004
F004
7C18
3FF0
0FC0
ENDCHAR
STARTCHAR C053
ENCODING 53
SWIDTH 547 0
DWIDTH 19 0
BBX 17 23 1 -1
BITMAP
008000
03C000
07C000
0E4000
1C6000
383C00
301F80
700700
600E00
601C00
E01800
C03800
C03000
C07000
C06000
406000
606000
206000
302000
183000
0F1800
07FC00
00FC00
ENDCHAR
STARTCHAR C054
ENCODING 54
SWIDTH 547 0
DWIDTH 19 0
BBX 17 19 1 1
BITMAP
060000
030000
810000
C10000
410000
418200
408700
408D00
409980
60F080
206080
200080
300080
100180
180100
0C0300
070E00
03FC00
00F000
ENDCHAR
STARTCHAR C055
ENCODING 55
SWIDTH 547 0
DWIDTH 19 0
BBX 15 23 2 -1
BITMAP
0780
1FC0
3860
7020
E030
C010
C018
C018
7FF8
3FF8
0018
0018
0018
0018
0018
0018
0018
0018
0008
000C
000C
0006
0002
ENDCHAR
STARTCHAR C056
ENCODING 56
SWIDTH 547 0
DWIDTH 19 0
BBX 17 21 1 1
BITMAP
C00000
E00000
200000
200000
200000
200000
200000
200000
3FC180
3FFF00
203000
201000
201000
203000
202000
206000
206000
20C000
238000
3F0000
1C0000
ENDCHAR
STARTCHAR C057
ENCODING 57
SWIDTH 547 0
DWIDTH 19 0
BBX 16 23 2 -1
BITMAP
4000
C000
E000
E000
7000
7800
3E00
1F80
07E0
01F8
007C
001E
000E
0007
1F87
3FC3
41E3
70E3
F872
F872
F834
7038
0030
ENDCHAR
STARTCHAR C058
ENCODING 58
SWIDTH 403 0
DWIDTH 14 0
BBX 5 17 6 2
BITMAP
70
F8
F8
F8
70
00
00
00
00
00
00
00
70
F8
F8
F8
70
ENDCHAR
STARTCHAR C059
ENCODING 59
SWIDTH 345 0
DWIDTH 12 0
BBX 6 20 4 -8
BITMAP
78
FC
FC
FC
78
00
00
78
FC
FC
FC
7C
0C
0C
18
18
30
30
60
20
ENDCHAR
STARTCHAR C060
ENCODING 60
SWIDTH 748 0
DWIDTH 26 0
BBX 10 22 13 0
BITMAP
8040
8040
8040
8040
8040
8040
8040
8040
8040
8040
8040
8040
8040
8040
8040
8040
8040
8040
8040
8040
8040
8040
ENDCHAR
STARTCHAR C061
ENCODING 61
SWIDTH 691 0
DWIDTH 24 0
BBX 20 10 2 5
BITMAP
FFFFF0
FFFFF0
000000
000000
000000
000000
000000
000000
FFFFF0
FFFFF0
ENDCHAR
STARTCHAR C062
ENCODING 62
SWIDTH 489 0
DWIDTH 17 0
BBX 18 25 0 -3
BITMAP
FFFFC0
040000
03E000
0FF000
1F1800
1F0800
1E0C00
000C00
000C00
101C00
183800
0FF000
07C000
00C000
002000
001800
000C00
007E00
01F900
078800
07C800
00E800
003800
001800
000C00
ENDCHAR
STARTCHAR C063
ENCODING 63
SWIDTH 806 0
DWIDTH 28 0
BBX 13 26 13 -2
BITMAP
0FC0
38F0
6038
7018
F818
F818
7018
0010
0030
0060
0040
00C0
0180
0100
0300
0300
0300
0300
0300
0000
0000
0000
0700
0F80
0F80
0700
ENDCHAR
STARTCHAR C064
ENCODING 64
SWIDTH 662 0
DWIDTH 23 0
BBX 24 25 0 -3
BITMAP
FFFFFF
001000
001000
001000
1E1000
3F9000
79D000
787038
7830E8
303388
001608
001C18
001010
000010
000078
0001F0
000790
000E10
000F10
000390
0000D0
000070
000030
000018
000010
ENDCHAR
STARTCHAR C065
ENCODING 65
SWIDTH 288 0
DWIDTH 10 0
BBX 11 23 0 0
BITMAP
0400
C7E0
6400
3400
1400
1C00
0C00
0400
0400
0400
0400
0400
0400
0400
0400
0400
0400
0400
0400
0400
0400
0400
0400
ENDCHAR
STARTCHAR C066
ENCODING 66
SWIDTH 518 0
DWIDTH 18 0
BBX 15 23 2 -1
BITMAP
0780
1FC0
3860
7020
5820
8FE0
87C0
8000
8000
8000
C000
6000
3800
1E00
0780
01C0
0070
0038
000C
0006
0002
0002
0002
ENDCHAR
STARTCHAR C067
ENCODING 67
SWIDTH 547 0
DWIDTH 19 0
BBX 20 24 0 -2
BITMAP
FFFFF0
300000
300000
380000
3E0000
37FC00
31FE00
306300
30E100
31C180
3F8180
1E0180
000380
000700
003E00
1FF800
1FC000
003000
000800
000400
000300
000080
000040
000020
ENDCHAR
STARTCHAR C068
ENCODING 68
SWIDTH 604 0
DWIDTH 21 0
BBX 22 21 0 1
BITMAP
FFFFFC
002000
002000
202000
202000
202000
202040
2020C0
2021E0
3027A0
103E30
103810
180010
080010
0C0010
040030
060020
030060
01C1C0
00FF80
003E00
ENDCHAR
STARTCHAR C069
ENCODING 69
SWIDTH 316 0
DWIDTH 11 0
BBX 16 32 -4 -1
BITMAP
8000
8000
E000
7F80
1FF0
0078
000C
0004
0002
0FFF
000C
0018
0030
0020
0060
0040
00C0
0080
0080
0180
0100
0100
0100
0100
0100
0100
0180
0080
00C7
0067
003F
000F
ENDCHAR
STARTCHAR C070
ENCODING 70
SWIDTH 547 0
DWIDTH 19 0
BBX 20 22 0 0
BITMAP
FFFFF0
780100
1C0100
070100
038100
008100
00E100
01F100
039D00
070F00
0E0300
1C0100
3C0100
170100
01C100
007100
001900
000D00
000700
000300
000100
000100
ENDCHAR
STARTCHAR C071
ENCODING 71
SWIDTH 547 0
DWIDTH 19 0
BBX 20 22 0 0
BITMAP
FFFFF0
380100
300100
700100
600100
200100
302100
1FE100
0FE100
01C100
038100
070100
0E0100
1E0100
038100
00E100
003900
000D00
000700
000300
000100
000100
ENDCHAR
STARTCHAR C072
ENCODING 72
SWIDTH 345 0
DWIDTH 12 0
BBX 7 20 3 2
BITMAP
78
C4
82
82
82
46
3C
00
00
00
00
00
00
78
C4
82
82
82
46
3C
ENDCHAR
STARTCHAR C073
ENCODING 73
SWIDTH 259 0
DWIDTH 9 0
BBX 27 33 -17 0
BITMAP
1FFC0000
7FFF0000
E003C000
8000E000
80003000
80001800
40000800
7E000400
3FFC0400
01FE0200
00030200
00013FE0
00000200
00000200
00000200
00000200
00000200
00000200
00000200
00000200
00000200
00000200
00000200
00000200
00000200
00000200
00000200
00000200
00000200
00000200
00000200
00000200
00000200
ENDCHAR
STARTCHAR C074
ENCODING 74
SWIDTH 691 0
DWIDTH 24 0
BBX 25 23 0 0
BITMAP
00000800
FFFF0F80
00010800
00010800
00030800
000F0800
00390800
00E10800
01810800
07010800
0C010800
18010800
18010800
0E010800
03818800
00C1C800
00616800
00313800
00191800
000D0800
00050800
00070000
00030000
ENDCHAR
STARTCHAR C075
ENCODING 75
SWIDTH 604 0
DWIDTH 21 0
BBX 21 23 1 0
BITMAP
000080
0040F8
00F080
01B880
730C80
FE0480
FC0480
700480
000C80
001880
00F080
07C080
0F0080
0F8080
01E080
007080
001880
000C80
000680
000280
000180
000180
000080
ENDCHAR
STARTCHAR C076
ENCODING 76
SWIDTH 748 0
DWIDTH 26 0
BBX 27 22 0 0
BITMAP
FFFFFFE0
18004000
18004000
0C004000
1F804000
3FE07C00
3C7FFE00
3C3FC300
18184300
00184300
00184300
00184300
00F04300
01F84300
01FE4300
01F74300
00E1C300
0000C300
0000C300
00006300
00006200
00006000
ENDCHAR
STARTCHAR C077
ENCODING 77
SWIDTH 403 0
DWIDTH 14 0
BBX 9 22 4 0
BITMAP
7000
C800
8400
8400
8400
4C00
3800
0000
0000
8000
C000
E000
7000
3800
1800
0C00
0600
0200
0300
0100
0080
0080
ENDCHAR
STARTCHAR C078
ENCODING 78
SWIDTH 518 0
DWIDTH 18 0
BBX 17 23 2 0
BITMAP
000800
1F0F80
30C800
606800
603800
C01800
C01800
C00800
CC0800
DE0800
7E0800
3C0800
000800
000800
000800
000800
000800
000800
000800
000800
000800
000800
000800
ENDCHAR
STARTCHAR C079
ENCODING 79
SWIDTH 259 0
DWIDTH 9 0
BBX 27 31 -17 0
BITMAP
80000000
80000000
40000000
3FF80000
0007E000
00001800
00000400
00000200
00000200
00003FE0
00000200
00000200
00000200
00000200
00000200
00000200
00000200
00000200
00000200
00000200
00000200
00000200
00000200
00000200
00000200
00000200
00000200
00000200
00000200
00000200
00000200
ENDCHAR
STARTCHAR C080
ENCODING 80
SWIDTH 806 0
DWIDTH 28 0
BBX 24 23 2 0
BITMAP
000400
3F0400
60843C
C0447E
F044C2
F04581
F04701
00C601
01841E
03041E
0E041E
380403
780601
0C0701
070581
0184C2
00C47E
00643C
003400
001400
001C00
000C00
000400
ENDCHAR
STARTCHAR C081
ENCODING 81
SWIDTH 892 0
DWIDTH 31 0
BBX 27 23 2 -1
BITMAP
000F0000
003F8000
00708000
00E0C780
01C0CFC0
0180D860
0380F020
43E0E020
43F0C020
C3F0C3C0
81F0C3C0
80E0C3C0
8000C3C0
8000C020
C000C020
6000E020
3FF8F860
1FFEDFC0
0007C780
0001C000
0000C000
0000C000
00004000
ENDCHAR
STARTCHAR C082
ENCODING 82
SWIDTH 604 0
DWIDTH 21 0
BBX 22 27 0 -5
BITMAP
FFFFFC
002000
002000
202000
202000
202000
202040
2020C0
2021E0
3027A0
103E30
103810
180010
080010
0C0010
040030
060020
030060
01C1C0
00FF80
003E00
000000
000000
001800
003C00
003C00
001800
ENDCHAR
STARTCHAR C083
ENCODING 83
SWIDTH 576 0
DWIDTH 20 0
BBX 21 23 0 0
BITMAP
000080
C078F8
F0FC80
398680
0F0280
0F0180
1F8180
3FC080
7FE080
7FE080
7FE080
79E080
000080
000080
000080
000080
000080
000080
000080
000080
000080
000080
000080
ENDCHAR
STARTCHAR C084
ENCODING 84
SWIDTH 489 0
DWIDTH 17 0
BBX 21 31 -3 0
BITMAP
800000
800000
400000
3FF800
000700
000080
000040
000040
000020
1FFFF8
020000
020000
020000
020000
020000
020000
020000
020180
0203C0
0203C0
0201C0
0200C0
020080
020180
020100
020300
020600
020C00
013800
01F000
00C000
ENDCHAR
STARTCHAR C085
ENCODING 85
SWIDTH 0 0
DWIDTH 0 0
BBX 15 11 -9 -10
BITMAP
1C00
7C00
E000
8000
8000
FF00
7F80
00E0
0070
001C
000E
ENDCHAR
STARTCHAR C086
ENCODING 86
SWIDTH 489 0
DWIDTH 17 0
BBX 18 27 0 -5
BITMAP
FFFFC0
100000
100000
100000
100000
100000
100000
100000
100C00
101E00
101E00
100E00
100600
100400
100C00
100800
101800
103000
106000
09C000
0F8000
060000
000000
060000
0F0000
0F0000
060000
ENDCHAR
STARTCHAR C087
ENCODING 87
SWIDTH 0 0
DWIDTH 0 0
BBX 9 9 -8 -8
BITMAP
0800
1800
3000
E000
E000
7800
1E00
0700
0180
ENDCHAR
STARTCHAR C088
ENCODING 88
SWIDTH 489 0
DWIDTH 17 0
BBX 18 22 0 0
BITMAP
FFFFC0
100000
100000
100000
100000
100000
100000
100000
100C00
101E00
101E00
100E00
100600
100400
100C00
100800
101800
103000
106000
09C000
0F8000
060000
ENDCHAR
STARTCHAR C089
ENCODING 89
SWIDTH 547 0
DWIDTH 19 0
BBX 20 22 0 0
BITMAP
FFFFF0
780100
1C0100
070100
038100
008100
00C100
01C100
038100
070100
0E0100
1C0100
3C0100
170100
01C100
007100
001900
000D00
000700
000300
000100
000100
ENDCHAR
STARTCHAR C090
ENCODING 90
SWIDTH 489 0
DWIDTH 17 0
BBX 18 33 0 1
BITMAP
020000
070000
060000
060000
060000
020000
030000
030000
010000
018000
008000
00C000
FFFFC0
006000
006000
007000
007800
006800
006C00
00EC00
00C400
01C600
018600
038600
070600
0E0600
1C0E00
380C00
300C00
101C00
183800
0FF000
07C000
ENDCHAR
STARTCHAR C091
ENCODING 91
SWIDTH 201 0
DWIDTH 7 0
BBX 6 36 2 -7
BITMAP
FC
FC
FC
E0
E0
E0
E0
E0
E0
E0
E0
E0
E0
E0
E0
E0
E0
E0
E0
E0
E0
E0
E0
E0
E0
E0
E0
E0
E0
E0
E0
E0
E0
E0
FC
FC
ENDCHAR
STARTCHAR C092
ENCODING 92
SWIDTH 460 0
DWIDTH 16 0
BBX 12 13 2 16
BITMAP
0820
1860
3060
30C0
6180
6180
C300
C300
FBE0
FFF0
FFF0
FDF0
78E0
ENDCHAR
STARTCHAR C093
ENCODING 93
SWIDTH 201 0
DWIDTH 7 0
BBX 5 36 0 -7
BITMAP
F8
F8
F8
38
38
38
38
38
38
38
38
38
38
38
38
38
38
38
38
38
38
38
38
38
38
38
38
38
38
38
38
38
38
F8
F8
F8
ENDCHAR
STARTCHAR C094
ENCODING 94
SWIDTH 0 0
DWIDTH 0 0
BBX 15 9 -6 23
BITMAP
0006
001C
0030
00E0
0180
0700
1C00
3800
F000
ENDCHAR
STARTCHAR C095
ENCODING 95
SWIDTH 0 0
DWIDTH 0 0
BBX 8 6 -4 -9
BITMAP
C0
60
38
0C
06
03
ENDCHAR
STARTCHAR C096
ENCODING 96
SWIDTH 288 0
DWIDTH 10 0
BBX 6 13 2 16
BITMAP
08
18
30
30
60
60
C0
C0
F8
FC
FC
FC
78
ENDCHAR
STARTCHAR C097
ENCODING 97
SWIDTH 806 0
DWIDTH 28 0
BBX 29 23 0 -1
BITMAP
FFFFFFF8
01800080
00400080
203E0080
207F8080
20F9C080
30F86080
10F82080
18703080
08001080
0C001080
06001080
02001080
03003080
01803880
00C06C80
0070C480
003F8680
000F0380
00000180
00000080
00000080
00000080
ENDCHAR
STARTCHAR C098
ENCODING 98
SWIDTH 518 0
DWIDTH 18 0
BBX 19 22 0 0
BITMAP
FFFFE0
000200
000200
000200
000E00
003200
00C200
038200
060200
1C0200
300200
300200
1C0200
070200
01C200
006200
003200
001A00
000E00
000600
000600
000200
ENDCHAR
STARTCHAR C099
ENCODING 99
SWIDTH 489 0
DWIDTH 17 0
BBX 18 22 0 0
BITMAP
FFFFC0
100000
100000
100000
180000
1C0000
170000
13C000
10F800
103E00
100600
100200
100600
100400
100C00
100800
101800
103000
106000
09C000
0F8000
060000
ENDCHAR
STARTCHAR C100
ENCODING 100
SWIDTH 460 0
DWIDTH 16 0
BBX 17 22 0 0
BITMAP
FFFF80
300000
300000
300000
300000
300400
301C00
307C00
30C800
338800
361800
3C1000
381000
301000
001000
001000
001000
001000
001000
001000
001000
001000
ENDCHAR
STARTCHAR C101
ENCODING 101
SWIDTH 316 0
DWIDTH 11 0
BBX 12 23 0 -1
BITMAP
FFF0
00C0
0180
0300
0200
0600
0400
0C00
0800
0800
1800
1000
1000
1000
1000
1000
1000
1800
0800
0C70
0670
03F0
00F0
ENDCHAR
STARTCHAR C102
ENCODING 102
SWIDTH 662 0
DWIDTH 23 0
BBX 24 22 0 0
BITMAP
FFFFFF
780000
1C0000
060000
030380
0183E0
00C270
01C218
038208
070208
0E0278
1C02F8
1C02F8
070270
01C200
006200
003200
001A00
000E00
000600
000600
000200
ENDCHAR
STARTCHAR C103
ENCODING 103
SWIDTH 547 0
DWIDTH 19 0
BBX 19 23 1 0
BITMAP
000200
07C3E0
1FF200
383A00
700E00
600600
FF0600
FF8200
E0C200
00C200
00C200
01C200
018200
038200
070200
060200
040200
000200
000200
000200
000200
000200
000200
ENDCHAR
STARTCHAR C104
ENCODING 104
SWIDTH 489 0
DWIDTH 17 0
BBX 18 24 0 -2
BITMAP
FFFFC0
040000
020000
03F000
0FF800
1F0C00
1F0400
1E0600
000600
000E00
000C00
001C00
203800
3FF000
1FC000
060000
010000
00C000
002000
001000
000800
000600
000100
000080
ENDCHAR
STARTCHAR C105
ENCODING 105
SWIDTH 259 0
DWIDTH 9 0
BBX 21 33 0 0
BITMAP
03F800
0FFE00
1C0780
3801C0
300060
700030
600010
600018
600008
200000
300000
FFC000
0C0000
080000
080000
080000
080000
080000
080000
080000
080000
080000
080000
080000
080000
080000
080000
080000
080000
080000
080000
080000
080000
ENDCHAR
STARTCHAR C106
ENCODING 106
SWIDTH 691 0
DWIDTH 24 0
BBX 25 22 0 0
BITMAP
FFFFFF80
00400000
01C00000
01A00000
43180000
4607FC00
44000800
44000800
64040800
261E1000
23FB1000
31E19000
10009000
18009000
0C009000
06019000
03831000
01FE0800
007C0800
00000800
00000800
00000400
ENDCHAR
STARTCHAR C107
ENCODING 107
SWIDTH 691 0
DWIDTH 24 0
BBX 25 22 0 0
BITMAP
FFFFFF80
00010000
00010000
00038000
000FE000
00393000
00E11800
01810800
06010C00
0C010400
18010400
18013C00
0E013C00
03013800
01C13800
00610000
00310000
00190000
000D0000
00070000
00030000
00030000
ENDCHAR
STARTCHAR C108
ENCODING 108
SWIDTH 604 0
DWIDTH 21 0
BBX 22 22 0 0
BITMAP
FFFFFC
000040
000040
000040
000040
078640
0FCF40
1869C0
1030C0
201040
201040
238040
17C040
1FC040
0FC040
038040
000040
000040
000040
000040
000040
000040
ENDCHAR
STARTCHAR C109
ENCODING 109
SWIDTH 547 0
DWIDTH 19 0
BBX 20 22 0 0
BITMAP
FFFFF0
700100
600100
600100
200100
300100
180100
0C0100
060100
030100
018100
008100
07C100
0FE100
0FF900
0FCD00
078700
000300
000100
000100
000100
000100
ENDCHAR
STARTCHAR C110
ENCODING 110
SWIDTH 518 0
DWIDTH 18 0
BBX 19 22 0 0
BITMAP
FFFFE0
000200
000200
000200
000200
000200
000200
000200
000200
1F0200
3FC200
3FE200
3F3200
3F1A00
1E0A00
000E00
000600
000600
000200
000200
000200
000200
ENDCHAR
STARTCHAR C111
ENCODING 111
SWIDTH 662 0
DWIDTH 23 0
BBX 19 31 2 1
BITMAP
010000
020000
020000
020000
030000
01C000
00FE00
003F80
0001C0
000060
00FC20
03FE20
070320
8C0120
9E0120
9E0140
8C03C0
803F80
807F00
407E00
407C00
403A00
200300
200100
100100
100100
080100
0C0300
070E00
03FC00
00F000
ENDCHAR
STARTCHAR C112
ENCODING 112
SWIDTH 604 0
DWIDTH 21 0
BBX 20 23 2 0
BITMAP
000100
0001F0
0F8100
386100
601100
F01900
083F00
047100
05E100
078100
070100
0E0100
0C0100
000100
000100
000100
000100
000100
000100
000100
000100
000100
000100
ENDCHAR
STARTCHAR C113
ENCODING 113
SWIDTH 604 0
DWIDTH 21 0
BBX 17 23 2 1
BITMAP
007C00
00FE00
018200
210200
310600
9F1C00
8FF800
83E000
820000
820200
820300
420F00
423D00
43F080
21C080
200080
300080
100180
180100
0C0300
070E00
03FC00
00F000
ENDCHAR
STARTCHAR C114
ENCODING 114
SWIDTH 518 0
DWIDTH 18 0
BBX 19 23 0 -1
BITMAP
FFFFE0
000200
000200
000200
000E00
003200
00C200
038200
060200
1C0200
300200
300200
1C0200
070200
01C200
006200
003200
001A00
000E00
030600
078600
078200
030000
ENDCHAR
STARTCHAR C115
ENCODING 115
SWIDTH 604 0
DWIDTH 21 0
BBX 22 22 0 0
BITMAP
FFFFFC
3E0040
070040
018040
00C040
004040
004040
006E40
003F40
0039C0
0070C0
00E040
11C040
1F8040
0E0040
000040
000040
000040
000040
000040
000040
000040
ENDCHAR
STARTCHAR C116
ENCODING 116
SWIDTH 604 0
DWIDTH 21 0
BBX 22 21 0 1
BITMAP
FFFFFC
000000
000000
400000
400000
403E00
607F00
207D80
207CC0
307C40
103860
100020
180020
080020
0C0020
040060
060040
0300C0
01C180
00FF00
003E00
ENDCHAR
STARTCHAR C117
ENCODING 117
SWIDTH 0 0
DWIDTH 0 0
BBX 15 11 -10 -10
BITMAP
0200
7A00
FE00
8700
8380
C2C0
7E60
3C30
0018
000C
0006
ENDCHAR
STARTCHAR C118
ENCODING 118
SWIDTH 633 0
DWIDTH 22 0
BBX 23 21 0 1
BITMAP
FFFFFE
000000
000000
400000
400000
40F000
21F800
21F840
21F8C0
21FBA0
10FF20
103C10
100010
080010
080010
040030
060020
030060
01C1C0
00FF80
003E00
ENDCHAR
STARTCHAR C119
ENCODING 119
SWIDTH 0 0
DWIDTH 0 0
BBX 12 9 -9 24
BITMAP
0E00
8E10
8E10
8E10
C030
4020
6060
3FC0
1F80
ENDCHAR
STARTCHAR C120
ENCODING 120
SWIDTH 518 0
DWIDTH 18 0
BBX 16 22 3 0
BITMAP
3C1F
7C10
7C10
4010
4070
31D0
0F10
0C10
3010
6010
C010
C010
7010
1C10
0610
0310
0190
00D0
0070
0030
0030
0010
ENDCHAR
STARTCHAR C121
ENCODING 121
SWIDTH 547 0
DWIDTH 19 0
BBX 20 23 0 -1
BITMAP
FFFFF0
780100
1C0100
070100
038100
008100
00C100
01C100
038100
070100
0E0100
1C0100
3C0100
170100
01C100
007100
001900
000D00
000700
018300
03C100
03C100
018000
ENDCHAR
STARTCHAR C122
ENCODING 122
SWIDTH 576 0
DWIDTH 20 0
BBX 19 23 2 0
BITMAP
000200
1F83E0
704200
C02200
F02200
F02200
F02200
006200
00C200
018200
070200
1C0200
380200
3E0200
018200
006200
001200
000A00
000600
000200
000200
000200
000200
ENDCHAR
STARTCHAR C123
ENCODING 123
SWIDTH 604 0
DWIDTH 21 0
BBX 22 1 0 10
BITMAP
FFFFFC
ENDCHAR
STARTCHAR C124
ENCODING 124
SWIDTH 1094 0
DWIDTH 38 0
BBX 39 1 0 10
BITMAP
FFFFFFFFFE
ENDCHAR
STARTCHAR C125
ENCODING 125
SWIDTH 489 0
DWIDTH 17 0
BBX 18 25 0 -3
BITMAP
FFFFC0
040000
03E000
0FF000
1F1800
1F0800
1E0C00
000C00
000C00
101C00
183800
0FF000
07C000
00C000
002000
001800
0F0400
1FB600
30FD00
2C4C00
3E4400
3E0400
1C0400
000400
000400
ENDCHAR
STARTCHAR C126
ENCODING 126
SWIDTH 633 0
DWIDTH 22 0
BBX 20 7 1 7
BITMAP
1F0000
3F8000
7FE030
60F060
C07FE0
001FC0
000F80
ENDCHAR
STARTCHAR C127
ENCODING 127
SWIDTH 979 0
DWIDTH 34 0
BBX 35 27 0 -4
BITMAP
0000000200
FFFFE783E0
00201FE200
0020387200
0020701A00
0020E00E00
0020F80600
0020FC0200
0020C60200
0021E20200
0027230200
203E330200
3038130200
1000170200
1000120200
1800100200
0800300200
0C00200200
0600600200
0381C00200
01FF800200
007E000200
0000000200
000C000000
001E000000
001E000000
000C000000
ENDCHAR
STARTCHAR C128
ENCODING 128
SWIDTH 691 0
DWIDTH 24 0
BBX 25 23 0 -1
BITMAP
FFFFFF80
00010000
00078000
001FE000
00797000
01E11800
07810C00
0E011C00
18013C00
180FFC00
0C3FF800
06F13000
03C11800
07011800
07C11800
00E13800
00317800
00197800
000D3000
00070000
00070000
00030000
00020000
ENDCHAR
STARTCHAR C129
ENCODING 129
SWIDTH 547 0
DWIDTH 19 0
BBX 20 32 0 -1
BITMAP
800000
600000
1C0000
03F000
000E00
000100
000080
000080
000080
FFFFF0
002000
002000
00FC00
03FE00
0F2300
1C2300
382780
3E2F00
072F00
01A600
00E000
006000
003000
00F600
01EF00
030F00
020700
020300
020200
010600
01FC00
00F800
ENDCHAR
STARTCHAR C130
ENCODING 130
SWIDTH 748 0
DWIDTH 26 0
BBX 27 21 0 1
BITMAP
FFFFFFE0
00000000
00000000
007E0000
01FF0000
23818000
2700FE00
2700C300
27018F00
271F1F00
203E1F00
103E1F00
101F1F00
10010E00
08008000
08008000
04008000
06018000
03870000
01FE0000
00780000
ENDCHAR
STARTCHAR C131
ENCODING 131
SWIDTH 691 0
DWIDTH 24 0
BBX 25 23 0 -1
BITMAP
FFFFFF80
00010000
0007C000
001FF000
00793800
01E10C00
07810C00
0E010600
18010600
180F1E00
0C3F3E00
06F13C00
03C11800
07010000
07C10000
00E10000
00310000
00190000
000D0000
00070000
00070000
00030000
00020000
ENDCHAR
STARTCHAR C132
ENCODING 132
SWIDTH 691 0
DWIDTH 24 0
BBX 25 23 0 -1
BITMAP
FFFFFF80
00100800
00300800
01FC0800
07DF0800
0E138800
3810C800
3C13C800
0F17C800
0397C800
00D38800
00700800
00300800
003C0800
007F0800
007FC800
007EE800
007E3800
003C1800
00001800
00000800
00000800
00000800
ENDCHAR
STARTCHAR C133
ENCODING 133
SWIDTH 835 0
DWIDTH 29 0
BBX 30 23 0 -1
BITMAP
FFFFFFFC
00000000
0007C000
001FE000
00383000
00703000
00603FC0
00E03860
10F831E0
30FC33E0
20FC33E0
207C33E0
207833E0
200031C0
20003000
30003000
10003000
18003000
0FFC3000
07FFF000
0003F000
00003000
00001000
ENDCHAR
STARTCHAR C134
ENCODING 134
SWIDTH 633 0
DWIDTH 22 0
BBX 23 22 0 0
BITMAP
FFFFFE
000200
000600
003F80
00FBC0
01C260
070230
078270
00E2F0
0072F0
001A60
000E00
000600
000600
0F3A00
1FFE00
30C600
384200
3C0200
3C0200
180200
000200
ENDCHAR
STARTCHAR C135
ENCODING 135
SWIDTH 806 0
DWIDTH 28 0
BBX 29 22 0 0
BITMAP
FFFFFFF8
18084000
18184000
0C104000
1F904000
3FD85000
3E6FFF00
3E37EF80
1C3040C0
00304040
00304340
003047C0
00F047C0
01FC4780
01FE4300
01F34000
00E1C000
0001C000
0000C000
0000C000
0000C000
0000C000
ENDCHAR
STARTCHAR C136
ENCODING 136
SWIDTH 748 0
DWIDTH 26 0
BBX 27 26 0 -4
BITMAP
FFFFFFE0
18108000
18108000
0C108000
1F988000
3FCFF000
3C67FC00
3C308E00
18308300
00308D00
00309F00
01E09F00
03F89E00
03FC8C00
03E68000
01C38000
00038000
03F18000
07FD8000
07CF8000
07C38000
03818000
00018000
00008000
00008000
00008000
ENDCHAR
STARTCHAR C137
ENCODING 137
SWIDTH 835 0
DWIDTH 29 0
BBX 30 28 0 -6
BITMAP
FFFFFFFC
18108040
18108040
0C108040
1F988040
3FCFF840
3E67FC40
3E308640
1C308340
00308F40
00309F40
01E09F40
03FC9F40
03FE8E40
03E38040
01C18040
00018040
0000C040
0007E040
000FF840
000F9E40
000F8740
000701C0
000000C0
000000C0
00000040
00000040
00000040
ENDCHAR
STARTCHAR C138
ENCODING 138
SWIDTH 662 0
DWIDTH 23 0
BBX 24 22 0 0
BITMAP
FFFFFF
001010
003010
00FC10
03DE10
0F1310
1C1190
381390
3E1790
071790
019310
00D390
007FD0
003C70
083830
0C7010
07E010
038010
000010
000010
000010
000010
ENDCHAR
STARTCHAR C139
ENCODING 139
SWIDTH 633 0
DWIDTH 22 0
BBX 21 24 2 -1
BITMAP
000400
0F87F8
3FE400
707400
E01C00
F80C00
FC0C00
060400
020400
030400
070400
0E0400
0407C0
003FC0
00FC40
01C4C0
030480
03C480
00E480
003480
001C80
000C80
000C80
000400
ENDCHAR
STARTCHAR C140
ENCODING 140
SWIDTH 547 0
DWIDTH 19 0
BBX 18 24 2 -1
BITMAP
000400
0F87C0
3FE400
707400
E01C00
F80C00
FC0400
060400
020400
030400
070400
0E0400
040400
000400
0F8400
3FE400
7E7400
7E1C00
7E0C00
3C0C00
000400
000400
000400
000400
ENDCHAR
STARTCHAR C141
ENCODING 141
SWIDTH 547 0
DWIDTH 19 0
BBX 18 24 2 -1
BITMAP
000400
0F87C0
3FE400
707400
E01C00
F80C00
FC0400
060400
020400
030400
070400
0E0400
040400
001E00
007C00
01E400
038400
03C400
00E400
003400
001C00
000C00
000600
000400
ENDCHAR
STARTCHAR C142
ENCODING 142
SWIDTH 691 0
DWIDTH 24 0
BBX 24 24 1 -1
BITMAP
000100
0FC1FF
3FF110
703910
E00D10
F80710
FC0310
060110
020110
030110
030110
070110
020110
000110
000110
000F10
001F90
001FD0
001F70
000E30
000030
000010
000010
000010
ENDCHAR
STARTCHAR C143
ENCODING 143
SWIDTH 576 0
DWIDTH 20 0
BBX 19 23 2 0
BITMAP
000200
07C3E0
1FF200
383A00
700E00
7C0600
7E0200
020200
030200
030200
030200
070200
020200
000200
3F3A00
7FFE00
C0C600
B04200
F80200
F80200
700200
000200
000200
ENDCHAR
STARTCHAR C144
ENCODING 144
SWIDTH 518 0
DWIDTH 18 0
BBX 19 25 0 -3
BITMAP
FFFFE0
1C0200
380200
300200
300200
304200
1FE200
0FC200
038200
070200
1E0200
0F8200
01C200
007200
003A00
01EE00
07F600
0FDA00
0FCE00
0FC600
078600
000200
000200
000200
000200
ENDCHAR
STARTCHAR C145
ENCODING 145
SWIDTH 604 0
DWIDTH 21 0
BBX 22 23 0 -1
BITMAP
FFFFFC
001818
000818
0F8C10
1FE630
3C73E0
3C1800
180800
000C00
000E00
003F80
00F5C0
03C460
070430
1C0430
0F04F0
03C5F0
00E5E0
0034C0
001C00
000C00
000C00
000400
ENDCHAR
STARTCHAR C146
ENCODING 146
SWIDTH 1209 0
DWIDTH 42 0
BBX 40 24 3 0
BITMAP
00F0000000
01F8000000
430FFFFFFF
6209010800
3E39810800
9FF1810800
87C3F90800
8407FD8800
840FC6FF80
841FC37FE0
8477830870
47E2030818
4382030868
20020308F8
20061E08F8
10043F88F0
180C3FC860
0C383E6800
07F01C3800
03C0001800
0000001800
0000000C00
0000000C00
0000000C00
ENDCHAR
STARTCHAR C147
ENCODING 147
SWIDTH 806 0
DWIDTH 28 0
BBX 29 23 0 0
BITMAP
003C0080
F87E00F8
0C420080
06CE0080
13FC0080
11F00080
10800080
10830080
108F8080
08FCE080
0870A080
0800B080
04009080
06019080
03073080
01FE6080
00F8C080
0000E080
00003880
00000C80
00000680
00000380
00000080
ENDCHAR
STARTCHAR C148
ENCODING 148
SWIDTH 576 0
DWIDTH 20 0
BBX 21 23 0 -1
BITMAP
FFFFF8
204040
1060C0
083080
1F1980
3F8FC0
3CC1E0
1843C0
006FC0
007DC0
007980
00F180
01E180
038180
070180
3E0180
380180
100180
000180
000180
000080
0000C0
0000C0
ENDCHAR
STARTCHAR C149
ENCODING 149
SWIDTH 892 0
DWIDTH 31 0
BBX 30 25 2 -1
BITMAP
00700000
00F80000
418FFFFC
210B0040
BB3F0040
9FF60040
87C60040
82060040
820A0840
420FFC40
423DF840
43F27040
21C2E040
2003C040
30038040
10078040
1805E040
0C1C7840
07F81C40
03E00640
00000340
000001C0
000000C0
00000040
00000020
ENDCHAR
STARTCHAR C150
ENCODING 150
SWIDTH 633 0
DWIDTH 22 0
BBX 21 24 2 -1
BITMAP
01E000
43FFF8
221080
BE7080
9FE080
878080
840080
841880
447880
47E480
438480
200480
200480
100C80
183880
0FF080
07F080
01FC80
01FE80
01F380
00E180
000080
000080
000080
ENDCHAR
STARTCHAR C151
ENCODING 151
SWIDTH 748 0
DWIDTH 26 0
BBX 27 22 0 0
BITMAP
FFFFFFE0
10080000
10080000
18080000
1C0C0000
178E0000
13FB8000
1079E000
10187C00
10181E00
10380200
10280200
10680600
10C80400
13880C00
0F080800
0C081800
00083000
00086000
0009C000
00078000
00060000
ENDCHAR
STARTCHAR C152
ENCODING 152
SWIDTH 748 0
DWIDTH 26 0
BBX 27 23 0 -1
BITMAP
FFFFFFE0
10100000
10180000
18180000
1C1E0000
179FFC00
13F9FE00
1078E300
1018C300
1019C300
103F8300
102E0700
10600E00
10C03C00
1387F000
0F03C000
0C01C000
00006000
00003000
00001800
00000C00
00000600
00000300
ENDCHAR
STARTCHAR C153
ENCODING 153
SWIDTH 720 0
DWIDTH 25 0
BBX 26 26 0 -4
BITMAP
FFFFFFC0
10100000
10180000
18180000
1E1E0000
17DFF800
11F9FC00
1038C600
1078C600
1059C600
10DF8E00
118E1C00
13007800
0E07E000
0C038000
0001C000
00006000
00003000
00001800
0000FC00
0007FE00
0007C800
0000E800
00003800
00001800
00000800
ENDCHAR
STARTCHAR C154
ENCODING 154
SWIDTH 633 0
DWIDTH 22 0
BBX 23 23 0 -1
BITMAP
FFFFFE
080000
0C0000
0F0000
0BE000
08F000
081000
081000
083000
0871E0
09FBF0
079E10
071C10
33D8F0
23D8E0
23D8F0
201C10
201E10
301BF0
1FF9E0
0FF800
001800
000800
ENDCHAR
STARTCHAR C155
ENCODING 155
SWIDTH 950 0
DWIDTH 33 0
BBX 34 22 0 0
BITMAP
FFFFFFFFC0
0180000000
03C0000000
0670000000
243FF80000
240FF80000
2420380000
27F06E0000
33DCC7FC00
100C81FC00
180C800400
0E1CC30C00
07F67F8800
01E23CC800
0002004800
0003004800
0001804800
0000E0C800
00007F8800
00001F0800
0000000800
0000000800
ENDCHAR
STARTCHAR C156
ENCODING 156
SWIDTH 950 0
DWIDTH 33 0
BBX 34 27 0 -5
BITMAP
FFFFFFFFC0
0180000000
03C0000000
0670000000
243FF80000
240FF80000
2420380000
27F0640000
33DCC70600
100C83FE00
180C80FE00
0E1CC30400
07F67F8400
01E23CC400
0002004400
0003004400
0001804400
0000E0C400
00007F9C00
00001F3400
000000E400
0000018400
0000030400
000003C400
0000007400
0000001C00
0000000400
ENDCHAR
STARTCHAR C157
ENCODING 157
SWIDTH 1209 0
DWIDTH 42 0
BBX 43 24 0 -1
BITMAP
000000000200
FFFFFFFFC3E0
006000004200
00E000004200
01A00000C200
01100003C200
131C080F4200
120FF83C4200
1203F8704200
120009C04200
13061B804200
19FF16004200
08F91F804200
0C0191E04200
040090704200
060090186200
0300900C7200
01C190065A00
00FF10034A00
003E1001CE00
00001001C600
00001000C200
00001000C000
000000004000
ENDCHAR
STARTCHAR C158
ENCODING 158
SWIDTH 748 0
DWIDTH 26 0
BBX 27 19 0 3
BITMAP
FFFFFFE0
00600000
00F00000
01900000
01181C00
23083E00
220C6200
2206C100
22028100
23070F00
31FF0E00
10F90F00
18018100
0800C100
0C00E300
0601BE00
03831C00
01FE0000
007C0000
ENDCHAR
STARTCHAR C159
ENCODING 159
SWIDTH 720 0
DWIDTH 25 0
BBX 26 26 0 -4
BITMAP
FFFFFFC0
00E00000
01A00000
03200000
02100000
261C0000
240FFC00
2403FE00
24000400
260C0400
33FE0400
11F20C00
18030800
08010800
0C010800
06010800
03833800
01FEE800
007D8800
00070800
000C0800
000E0800
00038800
0000E800
00003800
00000C00
ENDCHAR
STARTCHAR C161
ENCODING 161
SWIDTH 604 0
DWIDTH 21 0
BBX 18 29 2 -6
BITMAP
001E00
1C3F00
7EE180
F2C080
F30780
F30700
070780
0EC080
1CE180
383F00
701E00
E0E000
C0F000
C1D000
439800
7F1800
3C3800
00F000
7FC000
FF0000
7F0000
07C000
00F000
003800
000E00
000700
000180
0000C0
000040
ENDCHAR
STARTCHAR C162
ENCODING 162
SWIDTH 691 0
DWIDTH 24 0
BBX 20 24 2 0
BITMAP
0003C0
000FE0
1F1C20
3FB010
60E010
70C0F0
7980E0
7BC0F0
366010
0C3010
881C20
980FE0
9003C0
900840
D838C0
4FFC80
67C680
300280
180280
0E0680
07FC80
01F880
000080
0000C0
ENDCHAR
STARTCHAR C163
ENCODING 163
SWIDTH 604 0
DWIDTH 21 0
BBX 17 23 2 -1
BITMAP
03CF00
0FFF80
1C7080
586780
DE6780
8E6780
8E6780
807080
C07F80
7FEF00
3FE000
006000
01E400
07C400
1E4400
384400
3C4400
0E6400
037400
01DC00
00CC00
006400
004000
ENDCHAR
STARTCHAR C164
ENCODING 164
SWIDTH 576 0
DWIDTH 20 0
BBX 21 34 0 -3
BITMAP
800000
600000
1C0000
03F800
000700
000080
000040
000040
000040
FFFFF8
040000
040000
040000
040000
040000
040000
040300
040780
040780
040380
040180
040100
040300
040200
040600
040E00
041B00
223100
33E100
19C100
0C0300
070E00
03FC00
00F000
ENDCHAR
STARTCHAR C165
ENCODING 165
SWIDTH 489 0
DWIDTH 17 0
BBX 20 35 -2 -4
BITMAP
C00000
200000
180000
07F000
000E00
000100
000080
000080
000080
3FFFF0
040000
040000
040000
040000
040000
040000
040700
040F00
040F00
040700
040300
040200
040600
040400
040C00
041800
023100
03E700
01DF00
007900
007900
001D00
000700
000300
000300
ENDCHAR
STARTCHAR C166
ENCODING 166
SWIDTH 892 0
DWIDTH 31 0
BBX 32 21 0 1
BITMAP
FFFFFFFF
01000800
01000800
01000800
01100800
01180800
01780820
21EC0860
308408F0
10040990
10040F18
180C0E08
0C1C0008
07F40008
03E60008
00020018
00030010
00018030
0000E0E0
00007FC0
00001F00
ENDCHAR
STARTCHAR C167
ENCODING 167
SWIDTH 777 0
DWIDTH 27 0
BBX 26 31 2 0
BITMAP
04000000
02000000
01C00000
003FC000
00003800
00000400
00000200
00000200
00000200
0F1FFFC0
3F900000
70D00000
E0700000
E0300000
F0100000
F0100000
60100000
00101800
00103C00
00103C00
00101C00
00100400
00100C00
00100800
00101800
00101000
00103000
00106000
0009C000
000F8000
00060000
ENDCHAR
STARTCHAR C168
ENCODING 168
SWIDTH 604 0
DWIDTH 21 0
BBX 17 33 2 1
BITMAP
00C000
01C000
018000
018000
018000
018000
018000
018000
018000
018000
008000
0EC000
3FC000
71E000
F07000
F07000
706800
706C00
006600
00E200
00C100
01C180
018180
038180
070180
0E0180
1C0380
380300
300700
100E00
181C00
0FF800
07E000
ENDCHAR
STARTCHAR C169
ENCODING 169
SWIDTH 633 0
DWIDTH 22 0
BBX 18 21 2 1
BITMAP
0F0200
1F8700
38CD00
BC7880
BC3080
B81080
800080
800180
801D00
803F00
403E00
403F00
401D80
200080
200040
100040
180040
0C00C0
070380
03FF00
00FC00
ENDCHAR
STARTCHAR C170
ENCODING 170
SWIDTH 518 0
DWIDTH 18 0
BBX 17 23 2 0
BITMAP
000800
078F80
1FE800
387800
701800
700800
F80800
780800
700800
000800
000800
078800
1FC800
386800
703800
601800
F00800
F80800
780800
300800
000800
000800
000800
ENDCHAR
STARTCHAR C171
ENCODING 171
SWIDTH 633 0
DWIDTH 22 0
BBX 21 24 2 -1
BITMAP
001000
0F1FF8
3FD080
70D080
603080
F03080
F81080
F81080
701080
001080
001080
001080
001080
001080
007880
00FC80
00FE80
00FB80
007180
000180
000080
000080
000080
000080
ENDCHAR
STARTCHAR C172
ENCODING 172
SWIDTH 576 0
DWIDTH 20 0
BBX 21 21 0 1
BITMAP
FFFFF8
000000
000000
003E00
00FF00
01C180
230080
278080
178180
130D00
101F00
101E00
100F00
080180
080080
080080
040080
060180
030700
01FE00
00F800
ENDCHAR
STARTCHAR C173
ENCODING 173
SWIDTH 547 0
DWIDTH 19 0
BBX 20 25 0 -3
BITMAP
FFFFF0
000000
007E00
01FF00
038100
270100
278100
279B00
133E00
103C00
103E00
081B00
080100
040100
060300
030E00
01FE00
00FF00
003E00
00F200
00F200
003A00
000E00
000600
000300
ENDCHAR
STARTCHAR C174
ENCODING 174
SWIDTH 604 0
DWIDTH 21 0
BBX 20 23 2 0
BITMAP
000100
3801F0
64C100
42A100
F39100
F11100
F11100
003100
006100
00C100
038100
0E0100
1C0100
0F0100
00C100
003100
000900
000500
000300
000100
000100
000100
000100
ENDCHAR
STARTCHAR C175
ENCODING 175
SWIDTH 576 0
DWIDTH 20 0
BBX 21 23 0 -1
BITMAP
FFFFF8
000000
203E00
207F00
307D80
107CC0
183840
080040
0C0040
0600C0
030080
01C180
00FF00
003F00
07E100
0FF900
0F9D00
0F8700
070300
000300
000100
000100
000100
ENDCHAR
STARTCHAR C176
ENCODING 176
SWIDTH 604 0
DWIDTH 21 0
BBX 22 23 0 -1
BITMAP
FFFFFC
000000
201F00
203F80
303EC0
103E60
183E20
0C1C20
040020
060020
030060
018040
00E0C0
007F80
001F80
003C80
007080
007C80
000E80
000380
000180
000180
000080
ENDCHAR
STARTCHAR C177
ENCODING 177
SWIDTH 748 0
DWIDTH 26 0
BBX 27 23 0 -1
BITMAP
FFFFFFE0
00000200
201F0200
203F8200
303EC200
183E6200
081C2200
0C002200
06002200
03006200
01804200
00E0C200
007F8200
001F0200
001F8200
001FF200
001F7A00
001F0E00
000E0600
00000600
00000200
00000200
00000200
ENDCHAR
STARTCHAR C178
ENCODING 178
SWIDTH 662 0
DWIDTH 23 0
BBX 24 23 0 -1
BITMAP
FFFFFF
000000
0003E0
000FF0
001C18
003818
003018
007018
107818
107C18
307C18
203C18
203818
200018
200018
300018
100018
180018
0FFC18
07FFF8
0003F8
000018
000008
ENDCHAR
STARTCHAR C179
ENCODING 179
SWIDTH 806 0
DWIDTH 28 0
BBX 29 23 0 -1
BITMAP
FFFFFFF8
00000000
00078000
001FC000
00386000
007063C0
006067E0
00E067E0
10F863A0
10FC6020
30FC6020
207C6060
207878C0
20006F80
20006000
30006000
10006000
18006000
0FFC6000
07FFE000
0003E000
00006000
00002000
ENDCHAR
STARTCHAR C180
ENCODING 180
SWIDTH 864 0
DWIDTH 30 0
BBX 31 24 0 -1
BITMAP
00000020
FFF8FC3E
1003FF20
100703A0
100E00E0
100C0060
100F8060
101FC020
10386020
10F82020
11903020
13103020
16107020
1C102020
18100020
10100020
00300020
00200020
00200020
00300020
00100020
00100020
00100020
00000020
ENDCHAR
STARTCHAR C181
ENCODING 181
SWIDTH 835 0
DWIDTH 29 0
BBX 30 23 0 -1
BITMAP
FFFFFFFC
20070040
20060040
200E0040
200C0040
200C0040
201C0840
207FFC40
20D3F840
21907040
2310E040
2631C040
2C238040
38238040
3023E040
00207040
00201C40
00200E40
00200340
002001C0
003000C0
00100040
00000020
ENDCHAR
STARTCHAR C182
ENCODING 182
SWIDTH 576 0
DWIDTH 20 0
BBX 21 22 0 0
BITMAP
FFFFF8
200000
200000
200000
20C000
23C000
264080
2C4180
38C380
308680
008D80
009900
00B100
00A100
00E100
004100
000100
000100
000100
000100
000100
000100
ENDCHAR
STARTCHAR C183
ENCODING 183
SWIDTH 604 0
DWIDTH 21 0
BBX 22 23 0 -1
BITMAP
FFFFFC
100000
100000
100000
100000
100000
103800
10EC00
138400
1607C0
1C1FE0
187C20
01E420
038460
060440
078440
01C440
006440
003440
001C40
000C40
000C40
000400
ENDCHAR
STARTCHAR C184
ENCODING 184
SWIDTH 518 0
DWIDTH 18 0
BBX 19 23 0 -1
BITMAP
FFFFE0
100000
100000
100000
100000
100000
103C00
10E600
118200
170200
1C0E00
183E00
00F200
01C200
030200
03C200
00E200
003200
001A00
000E00
000600
000300
000200
ENDCHAR
STARTCHAR C185
ENCODING 185
SWIDTH 604 0
DWIDTH 21 0
BBX 22 23 0 -1
BITMAP
FFFFFC
100000
100000
100000
107000
11D000
133000
162000
1C2000
182000
002000
20E100
21E300
21E680
11FCC0
10F840
080040
080040
040040
0600C0
038380
01FF00
007C00
ENDCHAR
STARTCHAR C186
ENCODING 186
SWIDTH 604 0
DWIDTH 21 0
BBX 22 23 0 -1
BITMAP
FFFFFC
100000
100000
100000
107000
11D000
133000
162000
1C2000
182000
002000
00E180
11E1C0
11E340
11EE40
11FC40
10F040
180040
0C0040
07FFC0
03FFC0
000040
000040
ENDCHAR
STARTCHAR C187
ENCODING 187
SWIDTH 547 0
DWIDTH 19 0
BBX 20 23 0 -1
BITMAP
FFFFF0
200100
200100
200100
200100
203100
20F100
219100
271100
2C3100
382100
302100
202100
002100
002100
00E100
01F900
01FD00
01F700
00E300
000300
000100
000100
ENDCHAR
STARTCHAR C188
ENCODING 188
SWIDTH 489 0
DWIDTH 17 0
BBX 17 26 1 -3
BITMAP
0E0000
1F0F80
1F0800
161800
087800
07E800
038800
0E0800
3C0800
3C0800
070800
038800
00C800
006800
003800
001800
1F1800
7FC800
FCE800
FC3800
FC1800
781800
000800
000800
000800
000800
ENDCHAR
STARTCHAR C189
ENCODING 189
SWIDTH 921 0
DWIDTH 32 0
BBX 31 24 2 -1
BITMAP
0C000000
1E07FFFE
3E040020
2C040020
201C0020
207C01E0
10E407E0
0F840E20
07043820
1C047020
3805C020
E0078020
F807C020
1E04F020
07043820
01840C20
00C40620
00640320
003401A0
001C00E0
001C00E0
000C0060
000C0030
00040020
ENDCHAR
STARTCHAR C190
ENCODING 190
SWIDTH 777 0
DWIDTH 27 0
BBX 28 31 0 0
BITMAP
01000000
00800000
00700000
000FF000
00000E00
00000100
00000080
00000080
00000080
FFFFFFF0
00080000
00080000
00080000
00080000
0F080000
1FC80000
3EE80000
3E380600
3E180F00
1C180F00
00080700
00080100
00080300
00080200
00080600
00080400
00080C00
00081800
00047000
0007E000
00038000
ENDCHAR
STARTCHAR C191
ENCODING 191
SWIDTH 633 0
DWIDTH 22 0
BBX 23 21 0 1
BITMAP
FFFFFE
003000
003000
1E3000
3FB000
79F000
787000
7830C0
3031E0
003720
203E30
303810
100010
100010
180010
080030
0C0020
060060
0381C0
01FF80
007E00
ENDCHAR
STARTCHAR C192
ENCODING 192
SWIDTH 604 0
DWIDTH 21 0
BBX 22 23 0 -1
BITMAP
FFFFFC
000040
000020
000020
000020
078020
0FC020
2FF020
2FB860
370FC0
100F80
101F80
181FC0
081F40
0C1F60
060E20
020020
030020
018020
00C060
0070C0
003F80
000F00
ENDCHAR
STARTCHAR C193
ENCODING 193
SWIDTH 604 0
DWIDTH 21 0
BBX 22 25 0 -3
BITMAP
FFFFFC
000100
000100
000100
1E0100
3F0100
3F8100
3EE300
1C7E00
003F00
00FF80
01C0C0
098040
0BC040
0BC6C0
098F80
080F00
040780
0400C0
040040
020040
0300C0
01C380
00FF00
003C00
ENDCHAR
STARTCHAR C194
ENCODING 194
SWIDTH 604 0
DWIDTH 21 0
BBX 22 25 0 -3
BITMAP
FFFFFC
000040
000040
000040
078060
0FC040
2FF040
2FB8C0
370F80
100F00
181F80
081FC0
0C1F60
060E20
030020
018020
00E060
007FC0
001FC0
0003C0
001FC0
001E40
000740
0001C0
0000C0
ENDCHAR
STARTCHAR C195
ENCODING 195
SWIDTH 604 0
DWIDTH 21 0
BBX 22 25 0 -3
BITMAP
FFFFFC
000040
000040
000040
078060
0FC040
0FF040
0FB8C0
070F80
001FC0
003860
007060
00E060
10F060
10F860
107860
107060
100060
180060
080060
0C0060
07FFE0
03FFE0
000060
000020
ENDCHAR
STARTCHAR C196
ENCODING 196
SWIDTH 604 0
DWIDTH 21 0
BBX 22 24 0 -2
BITMAP
FFFFFC
000100
000100
000100
1E0100
3F0100
3F8100
3EE300
1C7F00
00FF80
01F0C0
01F040
01E060
000060
0000E0
0101C0
01FF80
00FE00
001000
000C00
000300
000080
000060
000010
ENDCHAR
STARTCHAR C197
ENCODING 197
SWIDTH 691 0
DWIDTH 24 0
BBX 25 22 0 0
BITMAP
FFFFFF80
00180000
00180000
00180000
00180000
1E180000
3F980C00
7DD81C00
7C787400
7C38C400
38398C00
001B0800
001E0800
001C0800
00180800
00000800
00000800
00000800
00000800
00000800
00000800
00000800
ENDCHAR
STARTCHAR C198
ENCODING 198
SWIDTH 604 0
DWIDTH 21 0
BBX 22 23 0 -1
BITMAP
FFFFFC
000400
000400
000400
0F8400
1FE400
3E7400
3E1C00
3E0C00
1C0F00
000FE0
003CE0
00F420
01C460
030440
07C440
00E440
003440
001C40
000C40
000C40
000640
000400
ENDCHAR
STARTCHAR C199
ENCODING 199
SWIDTH 518 0
DWIDTH 18 0
BBX 19 23 0 -1
BITMAP
FFFFE0
000200
000200
000200
000200
0FC200
1FF200
3E3A00
3E0E00
3E0600
1C0600
000200
000200
0F8200
1FE200
3E7200
3E1A00
3E0E00
1C0600
000600
000200
000200
000200
ENDCHAR
STARTCHAR C200
ENCODING 200
SWIDTH 547 0
DWIDTH 19 0
BBX 20 23 0 -1
BITMAP
FFFFF0
000100
000100
000100
000100
0FC100
3FF100
7E3900
7E0D00
7E0700
3C0300
000300
000780
001F00
007900
00E100
00F100
003900
000D00
000700
000300
000180
000100
ENDCHAR
STARTCHAR C201
ENCODING 201
SWIDTH 633 0
DWIDTH 22 0
BBX 23 23 0 -1
BITMAP
FFFFFE
000420
000420
000420
3F8420
7FE420
7C7420
7C1C20
380C20
000C20
000420
000420
000420
001E20
003F20
003FA0
003EE0
001C60
000060
000020
000020
000020
000020
ENDCHAR
STARTCHAR C202
ENCODING 202
SWIDTH 691 0
DWIDTH 24 0
BBX 25 22 0 0
BITMAP
FFFFFF80
07C00800
00E00800
00300800
00100800
00180800
00080800
1F0C0800
3FC40800
3CE5C800
3C37E800
001E3800
001C1800
08380800
0C700800
07E00800
03800800
00000800
00000800
00000800
00000800
00000800
ENDCHAR
STARTCHAR C203
ENCODING 203
SWIDTH 806 0
DWIDTH 28 0
BBX 27 31 2 0
BITMAP
04000000
03000000
00E00000
001FC000
00003800
00000600
00000100
00000100
00000080
001FFFE0
00180000
1F180000
70980000
C1D80000
23B80000
17180000
1E180000
3C180C00
30081E00
00081E00
00080E00
00080200
00080600
00080400
00080C00
00080800
00081800
00083000
0004E000
0007C000
00030000
ENDCHAR
STARTCHAR C204
ENCODING 204
SWIDTH 633 0
DWIDTH 22 0
BBX 21 24 2 -1
BITMAP
000100
0001F8
0FC100
383100
F01900
087D00
04E300
05C100
878100
8F0100
9C0100
C03F00
407F00
607F80
207E80
307EC0
183C40
080040
0C0040
060040
0300C0
01C180
00FF00
003E00
ENDCHAR
STARTCHAR C205
ENCODING 205
SWIDTH 604 0
DWIDTH 21 0
BBX 20 24 2 -1
BITMAP
000100
07C1F0
1C3100
700900
F01D00
883B00
047300
05E100
078100
070100
0E0100
0C0100
000100
000100
03E100
0FF900
1F9D00
1F8700
1F8300
0F0300
000100
000100
000100
000100
ENDCHAR
STARTCHAR C206
ENCODING 206
SWIDTH 604 0
DWIDTH 21 0
BBX 20 24 2 -1
BITMAP
000100
0001F0
0FC100
383100
F01D00
883F00
04F100
05C100
078100
0F0100
1C0100
000100
000100
000100
0FC100
383100
F01D00
883F00
04F100
05C100
078100
0F0100
1C0100
000100
ENDCHAR
STARTCHAR C207
ENCODING 207
SWIDTH 604 0
DWIDTH 21 0
BBX 20 23 2 0
BITMAP
000100
07C1F0
1C3100
700900
F01D00
883B00
047300
05E100
078100
070100
0E0100
0C0100
000100
0F8100
1FDD00
107F00
202300
3C2100
3E0100
3E0100
1C0100
000100
000100
ENDCHAR
STARTCHAR C208
ENCODING 208
SWIDTH 691 0
DWIDTH 24 0
BBX 25 22 0 0
BITMAP
FFFFFF80
07C00800
00E00800
00300800
00300800
0F180800
18880800
39CC0800
07A40800
0705C800
0E07E800
0C0E3800
001C1800
08380800
0C700800
07E00800
03800800
00000800
00000800
00000800
00000800
00000800
ENDCHAR
STARTCHAR C209
ENCODING 209
SWIDTH 691 0
DWIDTH 24 0
BBX 25 24 0 -2
BITMAP
FFFFFF80
07000000
03800000
00C0E000
0060F800
00609C00
00E08600
01C08200
03808200
03808200
01E09E00
0078BC00
001CBC00
00069800
00038000
07CD8000
0FFF8000
18338000
1C018000
1E008000
1E008000
0C008000
00008000
00008000
ENDCHAR
STARTCHAR C210
ENCODING 210
SWIDTH 691 0
DWIDTH 24 0
BBX 25 22 0 0
BITMAP
FFFFFF80
00400000
00C00000
03E00000
0F580000
1C47FC00
3C400C00
4E400C00
43441C00
41DE1800
40FB1800
60619800
20009800
30009800
18009800
0E019800
07831800
01FE0800
007C0800
00000800
00000C00
00000400
ENDCHAR
STARTCHAR C211
ENCODING 211
SWIDTH 633 0
DWIDTH 22 0
BBX 23 22 0 0
BITMAP
FFFFFE
002000
002000
00E000
03E000
0F2000
3C2030
702070
3C21D0
0F2310
03A630
00EC20
007820
007020
003020
000020
000020
000020
000020
000020
000020
000020
ENDCHAR
STARTCHAR C212
ENCODING 212
SWIDTH 633 0
DWIDTH 22 0
BBX 23 23 0 -1
BITMAP
FFFFFE
000200
000E00
007E00
01F200
078200
0E0200
380380
3007F0
1C1E70
0E7A10
03E210
038230
060220
078220
01C220
006220
003220
001A20
000E20
000620
000620
000200
ENDCHAR
STARTCHAR C213
ENCODING 213
SWIDTH 547 0
DWIDTH 19 0
BBX 20 23 0 -1
BITMAP
FFFFF0
000100
000700
003F00
00F900
03C100
0F0100
3C0100
380300
1C1F00
067D00
03E100
078100
0E0100
0F8100
01C100
007100
003900
000D00
000700
000300
000300
000100
ENDCHAR
STARTCHAR C214
ENCODING 214
SWIDTH 547 0
DWIDTH 19 0
BBX 20 22 0 0
BITMAP
FFFFF0
000100
000300
001F00
007D00
01E100
078100
0E0100
0F8100
01E100
007900
001D00
000700
0F9F00
1FFF00
306300
2C2100
3E0100
3E0100
1C0100
000100
000100
ENDCHAR
STARTCHAR C215
ENCODING 215
SWIDTH 691 0
DWIDTH 24 0
BBX 25 23 0 -1
BITMAP
FFFFFF80
00000000
00000000
00000000
00000000
00003000
00007800
0870C800
18F98C00
30FF0800
20FE0800
20780800
20000800
20000800
30000800
10000800
18000800
0E000800
07FFE800
01FFF800
00001800
00000800
00000800
ENDCHAR
STARTCHAR C216
ENCODING 216
SWIDTH 604 0
DWIDTH 21 0
BBX 22 24 0 -2
BITMAP
FFFFFC
000000
00C000
21E100
21E380
11E680
11FC40
18F840
080040
0C0040
0600C0
0383C0
01FF40
007C40
000040
07CE40
0FFF40
1831C0
1610C0
1F0040
1F0040
0E0040
000040
000040
ENDCHAR
STARTCHAR C217
ENCODING 217
SWIDTH 547 0
DWIDTH 19 0
BBX 20 23 0 -1
BITMAP
FFFFF0
080180
040080
040040
1C0040
3E0040
3F8040
3FC0C0
1C6180
003F00
001F00
000100
000100
07C100
1FF100
3F3900
3F0D00
3F0700
1E0300
000300
000100
000100
000100
ENDCHAR
STARTCHAR C218
ENCODING 218
SWIDTH 1008 0
DWIDTH 35 0
BBX 36 23 0 0
BITMAP
0000000100
FFF80F81F0
0804386100
0402E01100
1C03801900
3E03E03D00
3F02107300
3D8609E100
18FC0B8100
00780F0100
00000E0100
00003C0100
0000300100
0000000100
0000000100
0000000100
0000000100
0000000100
0000000100
0000000100
0000000100
0000000100
0000000100
ENDCHAR
STARTCHAR C219
ENCODING 219
SWIDTH 950 0
DWIDTH 33 0
BBX 34 23 0 -1
BITMAP
FFFFFFFFC0
0802000000
0402000000
0401000000
1C01007000
3F01007C00
3F81804E00
3EC3C04300
1C7E604100
003C604100
0000E04100
0001C04F00
0001805E00
0003805E00
0007804C00
0003E04000
0000704000
00001C4000
00000E4000
0000034000
000001C000
000000C000
0000004000
ENDCHAR
STARTCHAR C220
ENCODING 220
SWIDTH 547 0
DWIDTH 19 0
BBX 20 23 0 -1
BITMAP
FFFFF0
0C0180
040080
040040
1C0040
3E0040
3F8040
3FC0C0
1C6180
003F00
001F00
001F00
007D00
01E100
038100
03C100
00F100
003900
000D00
000700
000300
000180
000100
ENDCHAR
STARTCHAR C221
ENCODING 221
SWIDTH 633 0
DWIDTH 22 0
BBX 23 23 0 -1
BITMAP
FFFFFE
0600C0
020040
020020
0E0020
1F0020
1FC020
1FE060
0E30C0
001F80
20EF80
21F180
11F740
11FE40
10F820
080020
080020
040060
060040
0300C0
01C380
00FF00
003C00
ENDCHAR
STARTCHAR C222
ENCODING 222
SWIDTH 604 0
DWIDTH 21 0
BBX 22 23 0 -1
BITMAP
FFFFFC
040080
060080
020040
1E0040
3F8040
3FC040
3E70C0
1C3F80
000F00
00C180
11E380
31E640
21EC40
21F840
20F040
200040
300040
180040
0FFFC0
07FFC0
000040
000040
ENDCHAR
STARTCHAR C223
ENCODING 223
SWIDTH 691 0
DWIDTH 24 0
BBX 25 23 0 -1
BITMAP
FFFFFF80
0C008800
04008800
04004800
1C004800
3E004800
3F804800
3FC0C800
1C618800
003F8800
001E8800
00008800
00008800
00078800
000FC800
000FE800
000FB800
00071800
00001800
00000800
00000800
00000800
00000800
ENDCHAR
STARTCHAR C224
ENCODING 224
SWIDTH 576 0
DWIDTH 20 0
BBX 21 22 0 0
BITMAP
FFFFF8
0C00C0
040040
020020
1E0020
3F0020
3F8020
3EC060
1C70C0
003F80
000F80
000080
07C080
0FEE80
083F80
101180
161080
1F0080
0F0080
0E0080
000080
000080
ENDCHAR
STARTCHAR C225
ENCODING 225
SWIDTH 633 0
DWIDTH 22 0
BBX 23 23 0 -1
BITMAP
FFFFFE
000200
000200
000200
0F3A00
1FFA00
10C600
204600
384200
3C0200
3C0F80
183FC0
00F260
03C230
070230
078270
00E2F0
0072F0
001A60
000E00
000600
000600
000200
ENDCHAR
STARTCHAR C226
ENCODING 226
SWIDTH 604 0
DWIDTH 21 0
BBX 22 22 0 0
BITMAP
FFFFFC
000040
000040
000040
0FC740
1FEFC0
1038C0
201040
2C0040
3E0040
1EF840
0FFE40
070740
0E01C0
0C00C0
0F80C0
07C040
006040
002040
003040
007040
006040
ENDCHAR
STARTCHAR C227
ENCODING 227
SWIDTH 604 0
DWIDTH 21 0
BBX 22 25 0 -3
BITMAP
FFFFFC
000080
000080
0F8E80
1FDF80
107180
203080
2C0080
3E0080
1E0080
0CFC80
01FEC0
0B03C0
0BE1A0
0BF0A0
081020
0831A0
0463E0
0443E0
0201B0
030010
018010
00E070
007FE0
001F80
ENDCHAR
STARTCHAR C228
ENCODING 228
SWIDTH 806 0
DWIDTH 28 0
BBX 29 31 0 0
BITMAP
01000000
00C00000
00380000
0007F000
00000E00
00000180
00000040
00000040
00000020
FFFFFFF8
00040000
00040000
00040000
0F340000
1FFC0000
10CC0000
20440000
38040300
3C040780
3C040780
18040380
00040080
00040180
00040100
00040300
00040200
00040600
00040C00
00023800
0003F000
0001C000
ENDCHAR
STARTCHAR C229
ENCODING 229
SWIDTH 720 0
DWIDTH 25 0
BBX 26 21 0 1
BITMAP
FFFFFFC0
00020000
0F020000
1FBA0000
10FE0000
20460000
3C020800
3E021800
3E023C00
1C026400
0203C600
02038200
02000200
03000200
01000200
01800600
00C00400
00600C00
00383800
001FF000
0007C000
ENDCHAR
STARTCHAR C230
ENCODING 230
SWIDTH 604 0
DWIDTH 21 0
BBX 22 22 0 0
BITMAP
FFFFFC
000040
000040
07E740
0FFFC0
1818C0
160840
1F0040
1F0040
0E0040
000040
000040
03F040
0E0C40
3C0640
220F40
013CC0
017040
01E040
03C040
070040
000040
ENDCHAR
STARTCHAR C231
ENCODING 231
SWIDTH 604 0
DWIDTH 21 0
BBX 22 23 0 -1
BITMAP
FFFFFC
000040
000040
000040
000040
0FC040
1FEF40
103FC0
2010C0
2C0040
3E0040
3E0040
1C03E0
000FC0
003C40
007040
007840
001E40
000740
0001C0
0000C0
000060
000040
ENDCHAR
STARTCHAR C232
ENCODING 232
SWIDTH 691 0
DWIDTH 24 0
BBX 25 23 0 -1
BITMAP
FFFFFF80
00008800
00008800
00008800
0F9C8800
1FDE8800
10628800
20218800
2C018800
3E008800
1E008800
0C008800
00008800
00008800
00078800
000FC800
000FE800
000FB800
00071800
00001800
00000800
00000800
00000800
ENDCHAR
STARTCHAR C233
ENCODING 233
SWIDTH 604 0
DWIDTH 21 0
BBX 22 22 0 0
BITMAP
FFFFFC
000040
000040
000040
0FC740
1FEFC0
1038C0
201040
2C0040
3E0040
1E0040
0C0040
0FC040
1FEF40
103FC0
2010C0
2C0040
3E0040
3E0040
1C0040
000040
000040
ENDCHAR
STARTCHAR C234
ENCODING 234
SWIDTH 835 0
DWIDTH 29 0
BBX 30 23 0 0
BITMAP
00010000
F871FFFC
1CF90000
078D0000
07870000
0FC38000
1FE1C000
3FE17000
3FF13C00
3EF10F80
3C7103C0
00010040
00010040
000100C0
00010080
00010180
00010100
00010300
00010600
00010C00
00013800
0000F000
0000C000
ENDCHAR
STARTCHAR C235
ENCODING 235
SWIDTH 864 0
DWIDTH 30 0
BBX 31 24 0 -1
BITMAP
00008000
FC38FFFE
1E7C8000
03C6C000
03C3C000
07E1F000
0FF0FFC0
0FF8CFE0
1FF8CE30
1EF8CC30
1C78DC30
0000F830
00007070
000000E0
000003C0
00003F00
00003C00
00000C00
00000600
00000300
00000180
000000C0
00000060
00000030
ENDCHAR
STARTCHAR C236
ENCODING 236
SWIDTH 604 0
DWIDTH 21 0
BBX 22 24 0 -1
BITMAP
000040
F81C7C
1E3E40
076340
03C1C0
07E0C0
0FF040
1FF040
1FF840
1F7840
1E3840
000040
000040
000040
00F840
03FE40
07E740
07E1C0
07E0C0
03C0C0
000040
000040
000040
000040
ENDCHAR
STARTCHAR C237
ENCODING 237
SWIDTH 720 0
DWIDTH 25 0
BBX 26 24 0 -1
BITMAP
00008000
F838FFC0
1E7C8400
06C68400
03C38400
07E18400
0FF08400
0FF88400
1FF88400
1EF88400
1C788400
00008400
00008400
00008400
00008400
00038400
0007E400
0007F400
0007DC00
00038C00
00000C00
00000400
00000400
00000400
ENDCHAR
STARTCHAR C238
ENCODING 238
SWIDTH 604 0
DWIDTH 21 0
BBX 22 23 0 0
BITMAP
000040
F81C7C
1E3E40
076340
03C1C0
07E0C0
0FF040
1FF040
1FF840
1F7840
1E3840
000040
000040
03E040
07F740
041FC0
0808C0
0F0840
0F8040
0F8040
070040
000040
000040
ENDCHAR
STARTCHAR C239
ENCODING 239
SWIDTH 604 0
DWIDTH 21 0
BBX 22 24 0 -1
BITMAP
000040
F81C7C
1E3E40
076340
03C1C0
07E0C0
0FF040
1FF040
1FF840
1F7840
1E3840
000040
000040
0003E0
000FC0
003C40
007040
007840
001E40
000740
0001C0
0000C0
000060
000040
ENDCHAR
STARTCHAR C240
ENCODING 240
SWIDTH 604 0
DWIDTH 21 0
BBX 22 23 0 -1
BITMAP
FFFFFC
01F800
070400
0C0400
1B0400
108C00
105800
103800
10FF00
0FEF80
0388C0
060860
1C0860
3808E0
1E09E0
0789E0
01C8C0
006800
003800
001800
001800
000C00
000800
ENDCHAR
STARTCHAR C241
ENCODING 241
SWIDTH 806 0
DWIDTH 28 0
BBX 29 25 0 -3
BITMAP
FFFFFFF8
01F80000
07040000
0C040000
19040000
108C0000
10580000
1033C000
10EFE000
0F9C3000
00383000
04703F80
047839C0
0C7C33E0
083C33E0
083833E0
080031C0
0C003000
04003000
06003000
03FC3000
01FFF000
0003F000
00003000
00001000
ENDCHAR
STARTCHAR C242
ENCODING 242
SWIDTH 547 0
DWIDTH 19 0
BBX 20 32 0 -1
BITMAP
800000
600000
1C0000
03F000
000E00
000100
000080
000080
000080
FFFFF0
00FC00
078200
0E0200
1A0200
110600
308400
204C00
203800
207000
21C000
1F8000
060700
0C0F00
180F00
100700
100300
100200
100200
080600
0C0C00
07F800
03F000
ENDCHAR
STARTCHAR C243
ENCODING 243
SWIDTH 604 0
DWIDTH 21 0
BBX 22 33 0 1
BITMAP
003000
007000
006000
006000
006000
006000
006000
006000
006000
006000
002000
003000
FFFFFC
00F800
039C00
061C00
0E1A00
0A1B00
193980
10B880
107040
10F060
11E060
0FE060
01C060
038060
0700E0
0E00C0
0C01C0
040380
060700
03FE00
01F800
ENDCHAR
STARTCHAR C244
ENCODING 244
SWIDTH 806 0
DWIDTH 28 0
BBX 26 22 0 0
BITMAP
FFFF0000
3C010F00
0E011F80
03013080
01816040
0081C040
00C18040
01F10780
03B90780
070F0780
0E0700C0
1C018040
3C01C040
07016040
01813080
00E11F80
00310F00
00190000
000D0000
00070000
00030000
00030000
ENDCHAR
STARTCHAR C245
ENCODING 245
SWIDTH 864 0
DWIDTH 30 0
BBX 31 23 0 0
BITMAP
00000020
FFE0F83E
07138620
0C160120
1C1C03A0
123F07A0
31208E60
20E05C20
20C07820
23807020
1E00E020
0001C020
00018020
00000020
00000020
00000020
00000020
00000020
00000020
00000020
00000020
00000020
00000020
ENDCHAR
STARTCHAR C246
ENCODING 246
SWIDTH 806 0
DWIDTH 28 0
BBX 29 23 0 -1
BITMAP
FFFFFFF8
03E00000
0E100000
18100000
32100E00
21300F80
20B809C0
20EC0860
21C40820
1F060820
000E0820
001C09E0
00180BC0
00380BC0
00780980
003E0800
00078800
0001C800
00006800
00003800
00001800
00001800
00000800
ENDCHAR
STARTCHAR C247
ENCODING 247
SWIDTH 604 0
DWIDTH 21 0
BBX 22 23 0 -1
BITMAP
FFFFFC
01F840
070440
0C0440
1B0440
108C40
105840
103040
10F040
0F9040
001040
001040
00F040
01FC40
01FE40
01F340
00E1C0
0000C0
0000C0
000040
000040
000040
000040
ENDCHAR
STARTCHAR C248
ENCODING 248
SWIDTH 748 0
DWIDTH 26 0
BBX 27 23 0 -1
BITMAP
FFFFFFE0
00E03000
00E03000
00F01800
01B01800
01981800
230C3000
1E03E000
00006000
0001F800
0007BC00
000E2600
00182300
00702180
007C2180
000E2780
00032F80
0001AF00
0000E600
0000E000
00006000
00006000
00002000
ENDCHAR
STARTCHAR C249
ENCODING 249
SWIDTH 835 0
DWIDTH 29 0
BBX 30 25 0 -3
BITMAP
FFFFFFFC
00E06000
00E03000
00F03000
01B03000
01983000
330C3000
0E03E000
000FE000
001C3000
00183000
003837C0
043C3DE0
0C3E33F0
083E33F0
081C33F0
080031E0
08003000
0C003000
06003000
03C03000
01FFF000
003FF000
00003000
00001000
ENDCHAR
STARTCHAR C250
ENCODING 250
SWIDTH 748 0
DWIDTH 26 0
BBX 27 27 0 -5
BITMAP
FFFFFFE0
00E03000
00E03000
00F01800
01B01800
01981800
230C3000
1E03E000
00002000
0000F800
0003FC00
000F2600
001C2300
00382300
003C2700
00072F00
0003AF00
0000E600
01F3E000
03FFE000
060C6000
05842000
07C02000
07C02000
03802000
00002000
00002000
ENDCHAR
STARTCHAR C251
ENCODING 251
SWIDTH 806 0
DWIDTH 28 0
BBX 29 23 0 0
BITMAP
00000080
FFFE00F8
01830080
01C18080
01C0C080
01E0C080
0360C080
2330C080
1E0F8080
0000E080
0000B080
000C9880
001F8880
001F0880
000E1880
00003080
0000E080
00018080
0001E080
00003880
00000E80
00000380
00000180
ENDCHAR
STARTCHAR C252
ENCODING 252
SWIDTH 835 0
DWIDTH 29 0
BBX 30 31 0 0
BITMAP
01000000
00C00000
00380000
0007F800
00000700
000000C0
00000020
00000020
00000010
FFFFFFFC
1C018000
1E018000
03018000
01818000
00818000
00C18000
005D8000
007F8180
00E383C0
21C183C0
338181C0
1F018040
0C0180C0
00018080
00018180
00018100
00018300
00008600
00004C00
00007800
00003000
ENDCHAR
STARTCHAR C253
ENCODING 253
SWIDTH 691 0
DWIDTH 24 0
BBX 25 23 0 -1
BITMAP
FFFFFF80
00300C00
00380C00
00380600
00780600
006C0600
00660600
38C30C00
3F81F800
1003E000
1807F000
0807D800
0C07C800
04038C00
06000400
03000400
01000400
01800400
00C00C00
00600800
00381800
001FF000
0007E000
ENDCHAR
STARTCHAR C254
ENCODING 254
SWIDTH 604 0
DWIDTH 21 0
BBX 22 25 0 -3
BITMAP
FFFFFC
0180C0
01C0C0
01C060
036060
036060
033060
6618C0
3C0780
003F00
00FF80
01C0C0
098040
0BC040
0BC6C0
098F80
080F00
040780
0400C0
040040
020040
0300C0
01C380
00FF00
003C00
ENDCHAR
STARTCHAR C255
ENCODING 255
SWIDTH 633 0
DWIDTH 22 0
BBX 23 25 0 -3
BITMAP
FFFFFE
00E060
00E060
00E030
01B030
019830
330C30
0E03E0
000FE0
001C30
003830
003030
187830
107C30
107C30
103830
100030
100030
180030
080030
0E0030
07FFF0
01FFF0
000030
000010
ENDCHAR
ENDFONT
